<svg xmlns="http://www.w3.org/2000/svg" height="48" viewBox="0 96 960 960" width="48"><path d="M680 836q-14 0-23-9t-9-23q0-14 9-23t23-9q14 0 23 9t9 23q0 14-9 23t-23 9ZM560 686q-14 0-23-9t-9-23q0-14 9-23t23-9q14 0 23 9t9 23q0 14-9 23t-23 9ZM680 546q-14 0-23-9t-9-23q0-14 9-23t23-9q14 0 23 9t9 23q0 14-9 23t-23 9ZM320 896q-141-40-230.5-161T0 476q0-148 104.5-252T356 120q81 0 154 34.5T632 253q-68 30-105 90t-37 137q0 98 69 167t167 69q73 0 131-38.5T923 624q26 66 37 138.5T960 900H320ZM40 476h140q0 108 76 184t184 76v140q-140 0-239.5-99.5T40 476Zm80-80q0-140 99.5-239.5T460 56v140q-108 0-184 76T200 456H120ZM320 806q49-42 110-65.5T560 716V576q-115 0-196-81t-81-196H143q-2 11-2.5 22t-.5 22q0 117 44 221t120 181Z"/></svg>
