<svg xmlns="http://www.w3.org/2000/svg" height="48" viewBox="0 96 960 960" width="48"><path d="M480 976q-21 0-35.5-14.5T430 926V836q0-21 14.5-35.5T480 786q21 0 35.5 14.5T530 836v90q0 21-14.5 35.5T480 976Zm0-680q-21 0-35.5-14.5T430 246v-90q0-21 14.5-35.5T480 106q21 0 35.5 14.5T530 156v90q0 21-14.5 35.5T480 296Zm236 444q-17 17-37 17t-37-17q-14-14-14-36t14-36l65-65q14-14 36-14t36 14q14 14 14 36t-14 36l-65 65Zm-472 0q-17 17-37 17t-37-17q-14-14-14-36t14-36l65-65q14-14 36-14t36 14q14 14 14 36t-14 36l-65 65ZM480 706q-67 0-113.5-46.5T320 546q0-67 46.5-113.5T480 386q67 0 113.5 46.5T640 546q0 67-46.5 113.5T480 706ZM200 576q-21 0-35.5-14.5T150 526q0-21 14.5-35.5T200 476h90q21 0 35.5 14.5T340 526q0 21-14.5 35.5T290 576h-90Zm560 0q-21 0-35.5-14.5T710 526q0-21 14.5-35.5T760 476h90q21 0 35.5 14.5T900 526q0 21-14.5 35.5T850 576h-90ZM300 820q-17 17-37 17t-37-17q-14-14-14-36t14-36l65-65q14-14 36-14t36 14q14 14 14 36t-14 36l-65 65Zm-66-456q-17 17-37 17t-37-17q-14-14-14-36t14-36l65-65q14-14 36-14t36 14q14 14 14 36t-14 36l-65 65ZM256 926q-17 17-37 17t-37-17q-14-14-14-36t14-36l65-65q14-14 36-14t36 14q14 14 14 36t-14 36l-65 65Zm472-120q-17 17-37 17t-37-17q-14-14-14-36t14-36l65-65q14-14 36-14t36 14q14 14 14 36t-14 36l-65 65ZM536 946q-21 0-35.5-14.5T486 896V806q0-21 14.5-35.5T536 756q21 0 35.5 14.5T586 806v90q0 21-14.5 35.5T536 946Zm0-680q-21 0-35.5-14.5T486 246v-90q0-21 14.5-35.5T536 106q21 0 35.5 14.5T586 156v90q0 21-14.5 35.5T536 266ZM772 656q-17 17-37 17t-37-17q-14-14-14-36t14-36l65-65q14-14 36-14t36 14q14 14 14 36t-14 36l-65 65ZM208 656q-17 17-37 17t-37-17q-14-14-14-36t14-36l65-65q14-14 36-14t36 14q14 14 14 36t-14 36l-65 65ZM536 846q-67 0-113.5-46.5T376 686q0-67 46.5-113.5T536 526q67 0 113.5 46.5T696 686q0 67-46.5 113.5T536 846ZM256 566q-21 0-35.5-14.5T206 516q0-21 14.5-35.5T256 466h90q21 0 35.5 14.5T396 516q0 21-14.5 35.5T346 566h-90Zm560 0q-21 0-35.5-14.5T766 516q0-21 14.5-35.5T816 466h90q21 0 35.5 14.5T956 516q0 21-14.5 35.5T916 566h-90Z"/></svg>
